<svg xmlns="http://www.w3.org/2000/svg" xmlns:xlink="http://www.w3.org/1999/xlink" width="495" height="260" viewBox="0 0 495 260" role="img" aria-label="Top Languages">
  <rect x="0.5" y="0.5" width="494" height="259" rx="6" fill="#ffffff" stroke="#e4e2e2" />
  
    <circle cx="22" cy="34" r="5" fill="#3572A5" />
    <text x="34" y="38" fill="#586069" font-family="Verdana, Geneva, sans-serif" font-size="14">Python</text>
    <text x="220" y="38" fill="#586069" font-family="Verdana, Geneva, sans-serif" font-size="14" text-anchor="end">33.8%</text>
    <rect x="230" y="27" width="249" height="8" rx="4" fill="#e4e2e2" />
    <rect x="230" y="27" width="84.1018209130807" height="8" rx="4" fill="#3572A5" />
  
    <circle cx="22" cy="62" r="5" fill="#f34b7d" />
    <text x="34" y="66" fill="#586069" font-family="Verdana, Geneva, sans-serif" font-size="14">C++</text>
    <text x="220" y="66" fill="#586069" font-family="Verdana, Geneva, sans-serif" font-size="14" text-anchor="end">20.2%</text>
    <rect x="230" y="55" width="249" height="8" rx="4" fill="#e4e2e2" />
    <rect x="230" y="55" width="50.298246212083946" height="8" rx="4" fill="#f34b7d" />
  
    <circle cx="22" cy="90" r="5" fill="#3178c6" />
    <text x="34" y="94" fill="#586069" font-family="Verdana, Geneva, sans-serif" font-size="14">TypeScript</text>
    <text x="220" y="94" fill="#586069" font-family="Verdana, Geneva, sans-serif" font-size="14" text-anchor="end">19.7%</text>
    <rect x="230" y="83" width="249" height="8" rx="4" fill="#e4e2e2" />
    <rect x="230" y="83" width="49.143578759621214" height="8" rx="4" fill="#3178c6" />
  
    <circle cx="22" cy="118" r="5" fill="#00ADD8" />
    <text x="34" y="122" fill="#586069" font-family="Verdana, Geneva, sans-serif" font-size="14">Go</text>
    <text x="220" y="122" fill="#586069" font-family="Verdana, Geneva, sans-serif" font-size="14" text-anchor="end">7.8%</text>
    <rect x="230" y="111" width="249" height="8" rx="4" fill="#e4e2e2" />
    <rect x="230" y="111" width="19.46545216027952" height="8" rx="4" fill="#00ADD8" />
  
    <circle cx="22" cy="146" r="5" fill="#178600" />
    <text x="34" y="150" fill="#586069" font-family="Verdana, Geneva, sans-serif" font-size="14">C#</text>
    <text x="220" y="150" fill="#586069" font-family="Verdana, Geneva, sans-serif" font-size="14" text-anchor="end">6.0%</text>
    <rect x="230" y="139" width="249" height="8" rx="4" fill="#e4e2e2" />
    <rect x="230" y="139" width="14.871449132554813" height="8" rx="4" fill="#178600" />
  
    <circle cx="22" cy="174" r="5" fill="#555555" />
    <text x="34" y="178" fill="#586069" font-family="Verdana, Geneva, sans-serif" font-size="14">C</text>
    <text x="220" y="178" fill="#586069" font-family="Verdana, Geneva, sans-serif" font-size="14" text-anchor="end">5.0%</text>
    <rect x="230" y="167" width="249" height="8" rx="4" fill="#e4e2e2" />
    <rect x="230" y="167" width="12.348829164625725" height="8" rx="4" fill="#555555" />
  
    <circle cx="22" cy="202" r="5" fill="#e34c26" />
    <text x="34" y="206" fill="#586069" font-family="Verdana, Geneva, sans-serif" font-size="14">HTML</text>
    <text x="220" y="206" fill="#586069" font-family="Verdana, Geneva, sans-serif" font-size="14" text-anchor="end">3.9%</text>
    <rect x="230" y="195" width="249" height="8" rx="4" fill="#e4e2e2" />
    <rect x="230" y="195" width="9.76326048018515" height="8" rx="4" fill="#e34c26" />
  
    <circle cx="22" cy="230" r="5" fill="#563d7c" />
    <text x="34" y="234" fill="#586069" font-family="Verdana, Geneva, sans-serif" font-size="14">CSS</text>
    <text x="220" y="234" fill="#586069" font-family="Verdana, Geneva, sans-serif" font-size="14" text-anchor="end">1.1%</text>
    <rect x="230" y="223" width="249" height="8" rx="4" fill="#e4e2e2" />
    <rect x="230" y="223" width="2.660138702461874" height="8" rx="4" fill="#563d7c" />
  
</svg>